<svg width="933" height="933" viewBox="0 0 933 933" fill="none" xmlns="http://www.w3.org/2000/svg">
<g clip-path="url(#clip0_262_88)">
<rect width="933" height="933" fill="white"/>
<path d="M0 466.5V933H466.5H933V466.5V0.000475049H466.5H0V466.5ZM420.117 89.4352C395.192 103.697 381.197 133.286 383.063 167.274C384.529 191.665 389.861 208.059 405.322 235.516C417.184 256.442 419.05 261.774 418.117 272.57C417.184 285.232 411.186 296.828 400.257 307.757C388.261 319.753 376.532 326.284 352.541 334.548C326.283 343.611 315.754 349.209 305.757 359.205C284.565 380.265 273.902 417.051 261.906 509.152C255.242 560.2 250.844 578.86 232.584 636.44C227.652 651.768 222.454 668.295 220.988 673.093L218.322 681.757L209.925 672.96C161.142 621.378 129.287 555.402 117.958 482.495C115.026 463.168 113.826 417.851 115.825 397.858C131.286 245.379 243.646 121.024 393.859 89.835C405.588 87.4359 417.851 85.4366 421.183 85.4366L427.181 85.3033L420.117 89.4352ZM533.809 89.3019C662.963 114.626 767.992 212.325 802.913 339.213C834.369 453.972 806.912 573.795 728.673 663.097C723.475 668.961 718.543 673.893 717.744 674.16C716.011 674.559 696.418 610.582 688.421 578.86C683.756 559.934 680.424 549.937 662.697 501.821C650.568 469.166 645.103 451.039 639.238 423.849C628.309 373.6 625.776 366.136 615.647 355.207C605.917 344.677 590.189 338.546 546.072 328.55C512.35 320.952 505.553 317.487 502.62 307.091C501.821 304.158 501.154 295.495 501.154 287.498C501.154 273.503 501.288 273.103 504.886 270.304C517.948 259.641 527.678 244.98 532.343 229.252C533.543 225.253 535.142 213.524 535.942 203.261C536.608 192.998 538.074 178.337 539.274 170.739C544.472 137.418 534.476 107.829 512.75 91.5678C508.885 88.7688 505.553 86.103 505.286 85.8365C503.687 84.237 515.549 85.7032 533.809 89.3019ZM187.133 144.216C163.808 168.074 151.946 182.602 135.152 207.926C99.831 261.507 77.7056 321.752 69.1753 387.862C66.5096 408.255 66.9094 465.168 69.8417 486.36C87.9686 617.247 161.142 724.941 275.368 788.919C313.755 810.378 359.738 825.839 407.854 833.303C424.515 835.835 432.379 836.235 465.167 836.235C499.955 836.235 505.02 835.968 524.613 832.77C596.72 820.907 656.832 794.517 711.746 750.532C795.582 683.623 848.097 588.59 861.292 480.495C863.425 462.502 863.425 411.054 861.159 392.527C853.428 327.35 833.436 269.371 800.381 215.923C786.386 193.265 765.46 167.007 743.201 144.216C721.609 121.957 722.409 121.29 745.467 141.95C795.049 186.067 837.701 250.844 859.426 315.221C882.618 383.73 887.683 457.97 874.221 528.878C855.428 628.043 797.848 719.877 715.744 781.588C693.219 798.648 677.758 808.112 652.434 821.04C608.449 843.432 562.732 857.028 511.817 863.159C488.092 865.958 441.176 865.958 417.717 863.159C321.352 851.696 238.182 811.444 170.606 743.735C106.895 680.024 66.9094 601.386 53.3143 513.817C33.4547 384.53 73.707 256.709 164.341 161.809C176.204 149.28 205.793 122.623 207.659 122.623C208.059 122.623 198.729 132.353 187.133 144.216ZM453.705 321.619C454.771 323.218 454.638 324.418 453.038 325.884C450.239 328.683 446.507 327.084 446.507 323.218C446.507 318.42 451.039 317.354 453.705 321.619ZM453.171 336.014C454.371 338.013 454.238 339.213 453.038 340.679C450.639 343.478 445.441 343.078 444.508 339.879C442.642 334.014 450.372 330.682 453.171 336.014ZM452.372 352.674C455.571 355.74 455.037 359.739 451.172 361.471C448.373 362.671 447.44 362.538 445.174 360.538C441.975 357.606 441.842 356.14 444.774 352.941C447.44 350.009 449.706 349.875 452.372 352.674ZM454.638 372.267C456.504 375.6 454.371 380.531 450.639 381.597C447.04 382.53 442.509 379.065 442.509 375.2C442.509 368.669 451.572 366.403 454.638 372.267ZM455.437 392.66C457.437 395.859 457.437 396.525 455.704 399.724C452.105 406.122 441.176 403.989 441.176 396.792C441.176 389.328 451.305 386.529 455.437 392.66ZM466.633 413.319C468.633 417.185 465.967 420.917 460.769 421.45C456.637 421.85 456.504 422.116 456.903 426.915C457.437 432.912 455.437 435.845 451.172 435.845C445.174 435.845 443.841 434.512 443.841 428.514V422.649L438.243 422.25C433.445 421.85 432.379 421.317 432.112 418.784C431.313 413.186 434.112 411.587 443.042 412.52C448.64 413.053 452.905 412.786 456.504 411.453C462.501 409.321 464.634 409.721 466.633 413.319ZM470.232 442.776C472.365 444.908 472.231 451.439 470.232 452.639C469.299 453.172 466.5 454.105 463.834 454.505C459.036 455.304 458.636 456.237 460.369 463.168C462.102 469.699 452.238 474.764 447.307 469.699C445.974 468.5 445.174 465.301 445.174 461.702V455.838H440.243C433.712 455.838 431.579 454.238 431.579 449.84C431.579 443.575 433.312 442.909 446.507 444.508C451.839 445.175 455.171 444.775 458.503 443.309C464.234 440.776 468.099 440.643 470.232 442.776ZM583.658 445.441C584.458 447.84 586.324 456.637 587.79 464.901C590.056 477.163 593.121 486.76 603.918 514.217C622.578 561.533 625.91 571.13 631.241 591.656C636.173 610.582 641.371 625.11 660.697 675.093C673.626 708.147 684.422 739.47 683.356 740.536C683.089 740.936 676.558 738.137 668.961 734.271L655.099 727.474L644.436 733.872C631.641 741.469 599.652 757.063 596.72 757.063C595.654 757.063 594.454 755.73 593.921 753.998C583.525 717.078 573.928 671.094 571.662 648.435C569.93 630.042 570.33 618.579 575.794 524.48C578.06 487.826 579.793 454.105 579.793 449.44C579.793 440.376 581.392 438.777 583.658 445.441ZM340.145 476.497C342.278 483.828 349.075 502.754 355.206 518.482C361.204 534.21 367.202 550.071 368.268 553.803C379.998 590.19 381.064 628.309 371.067 658.032C364.003 679.091 329.882 753.065 326.683 754.131C325.884 754.398 316.42 750.132 305.757 744.534L286.164 734.405L274.968 742.535C268.704 746.934 263.373 750.266 262.973 749.866C261.24 748.133 288.564 644.17 304.291 592.455C310.556 571.929 318.819 543.673 322.685 529.811L329.749 504.487L329.882 479.163C329.882 451.839 331.215 445.175 334.281 456.504C335.214 460.103 337.879 469.166 340.145 476.497ZM475.03 481.428C476.763 486.36 473.164 490.492 467.033 490.492C461.435 490.492 461.035 491.292 462.901 498.356C464.367 503.687 464.234 504.22 461.302 506.619C457.57 509.685 453.305 509.818 449.706 507.286C447.84 505.82 447.174 503.82 447.174 498.889V492.491L441.442 492.358C434.645 492.091 432.912 490.758 432.912 485.694C432.912 481.428 436.777 478.096 440.509 479.163C447.973 481.295 456.77 481.428 460.635 479.296C462.768 478.23 466.633 477.297 469.166 477.563C472.898 477.83 474.097 478.496 475.03 481.428ZM478.762 516.483C481.295 522.214 478.496 526.212 471.565 526.746L465.834 527.145L466.233 534.609C466.633 541.274 466.367 542.473 463.701 544.339C456.37 549.404 449.839 544.872 449.839 534.609V528.478L444.641 528.878C441.309 529.145 438.777 528.478 437.044 527.012C431.313 521.814 436.111 513.55 444.108 515.016C456.104 517.282 459.303 517.416 463.834 515.416C471.298 512.084 476.896 512.484 478.762 516.483ZM479.562 548.604C486.226 553.269 481.695 562.466 472.764 562.466H467.566L468.366 567.264C468.899 569.797 469.699 572.862 469.965 573.795C470.365 574.862 469.166 577.261 467.166 579.26C464.367 582.059 462.901 582.592 459.436 581.926C453.571 580.726 451.572 577.661 452.105 570.463L452.505 564.465L445.574 564.066C440.109 563.799 438.243 562.999 437.044 561C433.312 554.069 439.976 547.538 447.973 550.337C454.104 552.47 462.235 552.07 469.166 549.138C476.63 546.072 475.963 546.072 479.562 548.604ZM486.493 586.724C488.226 590.056 488.226 590.856 486.493 594.055C484.76 597.12 483.294 597.92 478.496 598.187C475.164 598.453 471.965 599.12 471.432 599.653C470.898 600.186 471.165 603.518 472.098 606.984C473.697 613.248 473.697 613.515 470.099 616.58C465.434 620.579 461.302 620.579 456.637 616.98C453.305 614.314 453.038 613.648 453.971 606.984L454.771 599.786H448.107C440.243 599.786 437.177 597.52 437.177 591.789C437.177 588.99 438.243 587.124 440.643 585.658C443.708 583.525 444.641 583.525 452.505 585.391C461.169 587.524 467.433 587.124 472.631 583.925C477.163 581.259 484.227 582.726 486.493 586.724ZM486.493 623.778C492.357 629.642 488.226 637.106 479.162 637.106C472.365 637.106 471.565 638.572 473.564 646.303C475.03 651.768 474.897 652.167 471.432 655.233C467.3 658.698 463.834 659.232 459.436 656.966C454.904 654.567 454.371 652.967 455.304 645.37L456.104 638.439H449.706C439.71 638.439 435.578 632.574 440.643 625.244C443.042 621.912 446.241 621.912 458.103 624.977C462.768 626.177 464.901 626.043 470.765 623.911C480.228 620.579 483.294 620.579 486.493 623.778ZM453.971 662.564C462.235 665.363 467.033 665.363 477.296 662.43C485.293 660.165 489.692 661.364 491.824 666.562C493.29 670.161 493.29 670.961 490.891 674.16C488.759 677.092 487.026 677.892 481.428 678.158C473.697 678.558 472.764 679.891 474.764 687.621C475.83 692.02 475.697 693.619 474.097 696.285C469.965 702.549 457.836 701.883 454.771 695.219C453.838 692.953 453.838 690.42 454.771 686.555C456.637 679.358 454.638 676.692 448.373 677.892C441.842 679.091 437.177 675.759 437.177 669.761C437.177 666.562 438.11 664.563 440.643 662.564C444.908 659.098 444.375 659.098 453.971 662.564ZM453.305 703.749C460.369 706.948 467.7 707.081 477.163 704.282C483.827 702.283 484.36 702.283 487.692 704.815C492.357 708.281 493.024 714.545 489.025 718.544C486.626 720.943 485.16 721.209 480.495 720.676C473.164 719.61 471.831 721.076 472.764 729.606C473.298 735.071 473.031 737.07 471.298 738.803C466.233 743.868 457.303 743.202 453.571 737.604C451.705 734.671 451.572 733.338 453.038 727.74C453.971 724.142 454.371 720.543 453.838 719.743C453.438 719.077 450.106 718.41 446.507 718.41C441.309 718.41 439.576 717.877 437.977 715.478C435.178 711.48 435.311 708.814 438.643 704.549C441.975 700.417 445.574 700.15 453.305 703.749ZM452.105 744.534C458.103 747.6 460.102 748 467.166 747.2C471.565 746.8 476.763 746.134 478.762 745.601C481.561 744.934 483.161 745.601 485.693 748.133C489.958 752.532 490.092 756.264 485.96 760.395C483.161 763.194 481.961 763.594 475.963 762.795L469.166 761.995V769.992C469.166 778.656 467.433 781.455 461.035 783.054C456.237 784.254 449.439 780.655 448.373 776.256C447.84 774.39 448.24 770.525 449.173 767.726C451.572 760.529 450.372 758.396 443.841 758.396C434.511 758.396 429.98 750.399 435.844 744.001C439.443 740.136 443.708 740.269 452.105 744.534Z" fill="#080E32"/>
<path d="M348.676 145.282C334.947 163.942 330.416 180.336 333.748 199.263C334.681 205.127 336.413 212.058 337.48 214.59L339.479 219.255L345.61 212.991C358.139 200.062 363.47 185.401 362.004 167.807C361.205 158.477 357.073 139.417 355.473 137.685C355.073 137.285 352.008 140.75 348.676 145.282Z" fill="#080E32"/>
<path d="M287.364 178.203C258.974 212.458 242.047 243.114 233.783 275.635C230.584 288.031 230.051 292.563 230.051 309.89C229.918 321.486 230.718 333.215 231.651 337.88C235.516 355.607 246.179 383.863 248.978 383.863C249.644 383.863 250.577 379.865 250.977 374.8C252.31 361.738 258.174 326.95 262.04 309.357C266.038 291.763 276.834 257.242 278.434 257.242C278.967 257.242 278.7 262.04 277.767 267.771C273.369 295.362 268.971 358.539 271.503 358.539C272.169 358.539 276.568 355.34 281.366 351.342C297.227 338.28 308.956 319.486 314.688 297.894C318.686 282.699 319.619 250.311 316.687 228.585C313.088 203.128 303.758 162.609 301.359 162.609C300.826 162.609 294.561 169.673 287.364 178.203Z" fill="#080E32"/>
<path d="M200.195 234.184C195.53 240.715 189.266 254.31 187.266 262.174C183.668 275.769 185.267 290.297 191.931 306.025L194.73 312.289L199.262 307.891C209.392 298.027 215.656 279.234 213.79 264.173C212.857 255.776 205.793 232.451 203.927 231.251C203.394 230.851 201.661 232.184 200.195 234.184Z" fill="#080E32"/>
<path d="M362.537 246.979C351.341 256.309 342.411 268.571 339.079 278.967C337.879 282.833 336.679 291.763 336.28 298.827C335.347 314.155 336.013 314.688 346.676 307.757C358.938 300.027 367.468 288.164 371.467 273.903C373.733 265.772 375.466 238.582 373.733 238.582C373.066 238.582 368.002 242.314 362.537 246.979Z" fill="#080E32"/>
<path d="M162.875 336.814C144.215 407.988 143.416 445.175 159.677 476.497C164.875 486.493 184.468 507.553 193.131 512.351L197.53 514.75L196.597 496.357C195.397 471.299 192.332 436.911 189.799 419.451C188.733 411.587 187.933 403.99 188.2 402.79C188.866 399.858 198.596 429.181 203.794 449.84C208.592 469.3 212.324 488.893 215.923 514.483C217.389 525.146 218.989 535.942 219.389 538.475L220.188 543.14L223.92 535.809C243.913 496.09 248.045 452.506 235.116 415.052C226.186 388.928 207.393 359.072 179.27 326.817C174.205 320.953 169.54 316.021 169.14 316.021C168.607 315.888 165.808 325.351 162.875 336.814Z" fill="#080E32"/>
<path d="M151.412 526.745C153.944 561.133 164.874 581.259 189.665 597.254C199.661 603.785 200.328 603.118 200.328 585.924C200.328 560.733 188.599 541.673 161.142 522.08C156.21 518.615 151.945 515.816 151.412 515.816C150.879 515.816 150.879 520.748 151.412 526.745Z" fill="#080E32"/>
<path d="M572.595 144.216C566.464 165.808 566.464 182.868 572.861 196.33C576.727 204.727 589.389 220.055 591.122 218.322C593.387 216.057 597.119 197.263 597.119 187.8C597.119 174.338 593.654 163.275 585.257 150.48C575.66 135.952 575.127 135.685 572.595 144.216Z" fill="#080E32"/>
<path d="M625.777 169.54C617.113 199.929 613.114 224.987 612.181 253.243C611.648 273.103 611.915 280.167 613.648 289.764C617.646 310.823 625.377 327.217 638.172 341.345C644.97 348.942 656.432 358.539 658.698 358.539C661.63 358.539 654.833 270.837 650.968 258.042C650.434 256.575 650.701 255.909 651.501 256.442C653.5 257.642 661.63 282.966 666.295 301.893C670.427 319.22 676.025 350.142 678.558 370.801C679.491 377.999 680.69 383.863 681.09 383.863C682.423 383.863 688.554 370.002 692.553 358.272C702.949 327.617 702.816 293.496 692.286 261.24C687.488 246.712 676.025 223.92 665.362 208.059C655.899 193.931 630.841 162.609 628.975 162.609C628.309 162.609 626.976 165.808 625.777 169.54Z" fill="#080E32"/>
<path d="M725.474 232.717C722.542 238.182 718.41 252.177 716.944 261.24C714.945 272.836 716.677 284.565 721.742 294.695C726.274 303.892 733.871 312.955 735.471 311.223C736.27 310.423 738.403 305.358 740.402 299.893C745.067 286.831 746 273.769 743.335 262.973C741.069 254.176 733.871 238.715 729.34 233.384C726.807 230.185 726.674 230.185 725.474 232.717Z" fill="#080E32"/>
<path d="M555.801 248.179C555.934 269.904 561.799 288.031 571.928 298.561C578.326 305.092 588.589 311.889 592.188 311.889C594.72 311.889 594.853 311.223 594.054 298.827C592.987 282.433 590.455 274.036 583.391 263.64C578.326 256.309 559.533 238.582 556.867 238.582C556.201 238.582 555.801 242.98 555.801 248.179Z" fill="#080E32"/>
<path d="M754.264 323.085C724.674 355.873 702.816 390.394 694.019 417.851C688.687 434.645 687.354 443.309 687.354 461.169C687.354 480.229 689.62 493.558 696.684 513.684C701.216 526.746 708.813 543.273 709.746 542.207C710.013 541.94 711.879 531.011 713.745 517.816C717.477 491.558 723.608 459.436 727.873 443.842C731.872 428.914 741.069 401.324 742.268 400.524C742.935 400.258 742.535 404.923 741.602 410.92C738.669 428.914 734.538 471.032 733.605 493.691L732.672 514.883L739.203 510.352C749.199 503.554 762.794 489.292 768.259 479.829C786.786 448.374 786.519 410.121 767.459 336.814C764.527 325.351 761.728 315.888 761.195 316.021C760.795 316.154 757.596 319.22 754.264 323.085Z" fill="#080E32"/>
<path d="M766.393 524.213C745.201 539.941 733.738 555.935 730.406 574.462C728.94 582.859 729.74 600.453 731.606 601.786C733.338 602.719 749.333 591.123 757.33 583.126C766.526 574.062 773.591 560.6 776.256 547.139C778.655 535.143 780.255 515.816 778.789 515.816C778.256 515.816 772.658 519.682 766.393 524.213Z" fill="#080E32"/>
<path d="M595.254 622.312C586.724 651.101 590.19 673.093 605.917 690.021C608.983 693.353 612.315 695.752 613.381 695.485C616.18 694.552 619.646 678.691 619.646 666.029C619.779 649.369 614.314 635.24 601.785 620.312L597.387 615.114L595.254 622.312Z" fill="#080E32"/>
<path d="M328.416 620.312C321.752 628.576 314.554 641.505 312.288 649.102C310.955 653.234 310.022 660.831 310.156 666.429C310.156 676.026 313.488 692.553 315.754 694.819C318.953 698.018 332.681 681.757 336.68 670.161C339.878 660.831 339.878 641.238 336.546 628.443C333.081 614.847 332.948 614.581 328.416 620.312Z" fill="#080E32"/>
</g>
<defs>
<clipPath id="clip0_262_88">
<rect width="933" height="933" fill="white"/>
</clipPath>
</defs>
</svg>
